<?xml version="1.0" encoding="UTF-8"?>
<svg id="Layer_2" data-name="Layer 2" xmlns="http://www.w3.org/2000/svg" viewBox="0 0 438.44 451.19">
  <defs>
    <style>
      .cls-1 {
        font-family: AdobeClean-Bold, 'Adobe Clean';
        font-size: 116.14px;
        font-weight: 700;
      }

      .cls-2 {
        letter-spacing: .06em;
      }

      .cls-3 {
        letter-spacing: .05em;
      }

      .cls-4 {
        letter-spacing: .05em;
      }

      .cls-5 {
        letter-spacing: .05em;
      }

      .cls-6 {
        letter-spacing: .04em;
      }
    </style>
  </defs>
  <g id="Transparan_Siyah" data-name="Transparan Siyah">
    <g>
      <g>
        <path d="M302.73,147.82c6.19-5.01,11.21-11.8,11.21-23.3,0-17.4-12.98-25.96-37.16-25.96-9,0-16.38.27-22.42.29v47.2h21.53c10.62,0,22.42.88,26.84,1.77Z"/>
        <path d="M300.37,178.79c-5.31-1.48-12.09-2.07-20.06-2.07h-25.96v56.08c6.28.28,13.37.55,21.83.55,27.73.29,45.42-9.14,45.42-28.9,0-12.09-5.9-21.83-21.24-25.66Z"/>
        <path d="M0,25v277.32c0,13.81,11.19,25,25,25h388.44c13.81,0,25-11.19,25-25V25c0-13.81-11.19-25-25-25H25C11.19,0,0,11.19,0,25ZM277.36,263.15c-25.66,0-45.72-.29-56.92-.59-.1-.02-.17-.07-.27-.09-.22-.04-.41-.12-.57-.2-.07-.03-.13-.07-.19-.1-.1-.07-.21-.14-.29-.23-.5-.43-.75-1.02-.75-1.73v-82.29h-82v82.29c0,1.3-1.06,2.36-2.36,2.36h-30.38c-2.07,0-2.66-.88-2.66-2.65V71.43c0-2.06.59-2.65,2.36-2.65h30.67c1.3,0,2.36,1.06,2.36,2.36v74.62h82v-74.03c0-.92.16-1.58.6-2.05.3-.54.85-.9,1.76-.9h11.53c12.88-.28,30.82-.59,45.1-.59,61.65,0,71.08,32.44,71.08,51.32,0,20.94-11.21,33.04-18.58,38.34,10.91,5.61,28.32,18.58,28.32,45.72,0,37.16-32.15,59.58-80.82,59.58Z"/>
      </g>
      <text class="cls-1" transform="translate(0 423.2)"><tspan class="cls-5" x="0" y="0">G</tspan><tspan class="cls-6" x="80.84" y="0">L</tspan><tspan class="cls-3" x="143.55" y="0">O</tspan><tspan class="cls-2" x="229.73" y="0">B</tspan><tspan class="cls-4" x="304.06" y="0">AL</tspan></text>
    </g>
  </g>
</svg>