<?xml version="1.0" encoding="UTF-8"?>
<svg id="Layer_2" data-name="Layer 2" xmlns="http://www.w3.org/2000/svg" viewBox="0 0 1959.03 418.25">
  <g id="Transparan_Yatay" data-name="Transparan Yatay">
    <g>
      <path d="M383.81,228.47c-6.78-1.89-15.45-2.64-25.63-2.64h-33.17v71.66c8.02.36,17.09.7,27.89.7,35.43.38,58.04-11.68,58.04-36.93,0-15.45-7.54-27.89-27.14-32.79Z"/>
      <path d="M386.83,188.89c7.91-6.41,14.32-15.08,14.32-29.77,0-22.24-16.58-33.17-47.49-33.17-11.5,0-20.93.34-28.64.37v60.31h27.51c13.57,0,28.64,1.13,34.3,2.26Z"/>
      <path d="M0,25v368.25c0,13.81,11.19,25,25,25h510.24c13.81,0,25-11.19,25-25V25c0-13.81-11.19-25-25-25H25C11.19,0,0,11.19,0,25ZM354.41,336.25c-32.79,0-58.42-.38-72.74-.75-.08-.02-.12-.05-.19-.07-.73-.1-1.23-.35-1.55-.79-.59-.55-.89-1.28-.89-2.16v-105.15h-104.78v104.78c0,1.87-1.52,3.39-3.39,3.39h-38.44c-2.64,0-3.39-1.13-3.39-3.39V91.28c0-2.64.75-3.39,3.02-3.39h39.2c1.67,0,3.01,1.35,3.01,3.01v95.35h104.78v-94.6c0-1.25.18-2.17.84-2.75.41-.61,1.08-1.02,2.17-1.02h14.71c16.46-.36,39.41-.75,57.65-.75,78.77,0,90.83,41.46,90.83,65.58,0,26.76-14.32,42.21-23.74,49,13.95,7.16,36.18,23.74,36.18,58.42,0,47.49-41.08,76.13-103.27,76.13Z"/>
    </g>
    <path d="M734.48,232.63c-2.51-.36-2.87-1.07-2.87-3.23v-31.93c0-1.79,1.08-2.16,2.51-2.16h81.08c2.51,0,2.87.72,2.87,2.87v116.96c.36,1.79-.36,2.87-2.15,3.23-25.11,9.69-49.87,12.2-70.68,12.2-83.95,0-125.93-53.45-125.93-119.83,0-74.62,53.1-123.06,132.39-123.06,24.04,0,45.21,2.51,58.12,8.61,1.44.72,2.15,2.16,2.15,4.31v34.44c0,2.16-1.44,2.51-2.87,1.79-16.14-8.25-34.8-10.4-55.97-10.4-57.76-.72-88.97,30.85-88.97,82.88,0,46.64,28.7,83.23,83.23,83.23,12.2,0,20.09-1.07,27.27-3.22v-55.61l-40.18-1.08Z"/>
    <path d="M886.24,326.98c-2.87,0-3.59-1.08-3.59-3.59V94.5c0-1.79.72-3.23,2.87-3.23h38.39c1.43,0,2.15,1.07,2.15,2.51v194.09h105.48c2.15,0,2.87,1.08,2.51,2.51l-6.1,33.73c-.36,2.51-1.43,2.87-3.23,2.87h-138.48Z"/>
    <path d="M1284.83,207.87c.36,74.27-45.57,122.7-110.86,122.7-69.6,0-111.22-51.66-111.22-121.62s45.21-121.26,111.22-121.26c70.32,0,110.5,53.81,110.86,120.19ZM1175.41,292.18c40.54,0,64.94-33.37,64.58-83.23,0-50.23-24.75-82.87-66.73-82.87-38.03,0-65.65,29.78-65.65,82.87,0,46.28,23.68,83.23,67.81,83.23Z"/>
    <path d="M1342.59,94.86c0-1.79.36-2.87,2.16-3.23,12.91-.36,45.56-1.07,69.6-1.07,74.98,0,86.46,39.46,86.46,62.42,0,25.47-13.63,40.18-22.6,46.64,13.27,6.81,34.44,22.6,34.44,55.61,0,45.21-39.11,72.47-98.3,72.47-31.21,0-55.61-.36-69.24-.72-1.79-.36-2.51-1.43-2.51-2.87V94.86ZM1385.28,185.27h27.26c12.92,0,27.27,1.08,32.65,2.15,7.53-6.1,13.63-14.35,13.63-28.34,0-21.17-15.79-31.57-45.21-31.57-11.48,0-20.81.36-28.34.36v57.4ZM1385.28,290.75c7.89.36,16.86.72,27.62.72,33.72.36,55.25-11.12,55.25-35.16,0-14.71-7.18-26.55-25.83-31.21-6.45-1.79-14.71-2.51-24.4-2.51h-32.64v68.17Z"/>
    <path d="M1609.15,264.91l-19.73,59.2c-.72,2.15-1.79,2.87-3.95,2.87h-35.88c-2.15,0-2.87-1.08-2.51-3.59l73.91-210.24c1.43-3.59,2.51-7.18,3.23-19.37,0-1.44.72-2.51,2.15-2.51h49.87c1.79,0,2.15.36,2.51,2.15l82.87,230.33c.36,2.15,0,3.23-2.15,3.23h-40.18c-1.79,0-2.87-.72-3.59-2.15l-20.81-59.92h-85.74ZM1683.41,225.81c-7.53-23.68-24.4-73.55-31.57-98.66h-.36c-5.74,24.04-20.09,66.01-30.85,98.66h62.79Z"/>
    <path d="M1811.13,326.98c-2.87,0-3.59-1.08-3.59-3.59V94.5c0-1.79.72-3.23,2.87-3.23h38.39c1.44,0,2.16,1.07,2.16,2.51v194.09h105.47c2.16,0,2.87,1.08,2.51,2.51l-6.1,33.73c-.36,2.51-1.43,2.87-3.23,2.87h-138.48Z"/>
  </g>
</svg>